<svg width="17" height="16" viewBox="0 0 17 16" fill="none" xmlns="http://www.w3.org/2000/svg">
<path fill-rule="evenodd" clip-rule="evenodd" d="M8.20184 0.736397C8.38953 0.642555 8.61044 0.642555 8.79813 0.736397L15.4648 4.06973C15.6906 4.18266 15.8333 4.4135 15.8333 4.66602C15.8333 4.91853 15.6906 5.14937 15.4648 5.2623L8.79813 8.59563C8.61044 8.68948 8.38953 8.68948 8.20184 8.59563L1.53517 5.2623C1.30932 5.14937 1.16665 4.91853 1.16665 4.66602C1.16665 4.4135 1.30932 4.18266 1.53517 4.06973L8.20184 0.736397ZM3.32403 4.66602L8.49998 7.25399L13.6759 4.66602L8.49998 2.07804L3.32403 4.66602Z" fill="#9A9CA5"/>
<path fill-rule="evenodd" clip-rule="evenodd" d="M1.23703 7.70121C1.40169 7.37189 1.80214 7.2384 2.13146 7.40306L8.49998 10.5873L14.8685 7.40306C15.1978 7.2384 15.5983 7.37189 15.7629 7.70121C15.9276 8.03052 15.7941 8.43097 15.4648 8.59563L8.79813 11.929C8.61044 12.0228 8.38953 12.0228 8.20184 11.929L1.53517 8.59563C1.20586 8.43097 1.07237 8.03052 1.23703 7.70121Z" fill="#9A9CA5"/>
<path fill-rule="evenodd" clip-rule="evenodd" d="M1.23703 11.0345C1.40169 10.7052 1.80214 10.5717 2.13146 10.7364L8.49998 13.9207L14.8685 10.7364C15.1978 10.5717 15.5983 10.7052 15.7629 11.0345C15.9276 11.3639 15.7941 11.7643 15.4648 11.929L8.79813 15.2623C8.61044 15.3561 8.38953 15.3561 8.20184 15.2623L1.53517 11.929C1.20586 11.7643 1.07237 11.3639 1.23703 11.0345Z" fill="#9A9CA5"/>
</svg>
