<svg width="17" height="16" viewBox="0 0 17 16" fill="none" xmlns="http://www.w3.org/2000/svg">
<path fill-rule="evenodd" clip-rule="evenodd" d="M9.9547 2.16732C9.86168 2.16732 9.77547 2.21676 9.72843 2.29736L9.72433 2.30438L6.66683 7.26115V13.834H12.3907C12.5135 13.834 12.6198 13.7487 12.6464 13.629L12.6487 13.6186L14.3487 6.97883C14.3798 6.8179 14.2565 6.66732 14.0915 6.66732H11.5002C11.066 6.66732 10.6268 6.52228 10.307 6.21014C9.97075 5.88199 9.81488 5.41203 9.91491 4.90572L10.3941 2.48001C10.4261 2.31806 10.3022 2.16732 10.1372 2.16732H9.9547ZM5.3335 13.834V7.73875H2.97118C2.82739 7.73875 2.7104 7.85476 2.70929 7.99872C2.70929 7.99872 2.70929 7.99872 2.70929 7.99872L2.66684 13.5701C2.66572 13.7154 2.78327 13.834 2.92868 13.834H5.3335ZM5.62809 6.40541L8.58155 1.61731C8.86843 1.13222 9.39032 0.833984 9.9547 0.833984H10.1372C11.1424 0.833984 11.897 1.75237 11.7022 2.73844L11.223 5.16415C11.2144 5.20732 11.22 5.22693 11.2213 5.23124C11.2228 5.23604 11.226 5.24402 11.2383 5.25596C11.2661 5.28317 11.3492 5.33398 11.5002 5.33398H14.0915C15.1121 5.33398 15.8701 6.27923 15.6487 7.27539L15.6464 7.28579L13.9453 13.93C13.7788 14.6537 13.1343 15.1673 12.3907 15.1673H2.92868C2.04298 15.1673 1.32676 14.4457 1.33354 13.56C1.33354 13.56 1.33354 13.56 1.33354 13.56L1.37599 7.98854C1.38271 7.11235 2.09485 6.40541 2.97118 6.40541H5.62809Z" fill="#9A9CA5"/>
</svg>
